<?xml version="1.0" encoding="UTF-8" standalone="no"?>
<!-- Created with Inkscape (http://www.inkscape.org/) -->

<svg
   xmlns:dc="http://purl.org/dc/elements/1.1/"
   xmlns:cc="http://creativecommons.org/ns#"
   xmlns:rdf="http://www.w3.org/1999/02/22-rdf-syntax-ns#"
   xmlns:svg="http://www.w3.org/2000/svg"
   xmlns="http://www.w3.org/2000/svg"
   xmlns:sodipodi="http://sodipodi.sourceforge.net/DTD/sodipodi-0.dtd"
   xmlns:inkscape="http://www.inkscape.org/namespaces/inkscape"
   width="179.91667mm"
   height="26.722916mm"
   viewBox="0 0 179.91667 26.722916"
   version="1.1"
   id="svg11806"
   inkscape:version="0.92.1 r15371"
   sodipodi:docname="Method4 Logo Black White.svg">
  <defs
     id="defs11800" />
  <sodipodi:namedview
     id="base"
     pagecolor="#ffffff"
     bordercolor="#666666"
     borderopacity="1.0"
     inkscape:pageopacity="0.0"
     inkscape:pageshadow="2"
     inkscape:zoom="1"
     inkscape:cx="297.72824"
     inkscape:cy="108.76659"
     inkscape:document-units="mm"
     inkscape:current-layer="layer1"
     showgrid="true"
     fit-margin-top="0"
     fit-margin-left="0"
     fit-margin-right="0"
     fit-margin-bottom="0"
     inkscape:window-width="1920"
     inkscape:window-height="1017"
     inkscape:window-x="-8"
     inkscape:window-y="-8"
     inkscape:window-maximized="1">
    <inkscape:grid
       type="xygrid"
       id="grid12371"
       originx="-2e-007"
       originy="1.8774349e-006" />
  </sodipodi:namedview>
  <metadata
     id="metadata11803">
    <rdf:RDF>
      <cc:Work
         rdf:about="">
        <dc:format>image/svg+xml</dc:format>
        <dc:type
           rdf:resource="http://purl.org/dc/dcmitype/StillImage" />
        <dc:title></dc:title>
      </cc:Work>
    </rdf:RDF>
  </metadata>
  <g
     inkscape:label="Layer 1"
     inkscape:groupmode="layer"
     id="layer1"
     transform="translate(-2e-7,-270.27709)">
    <path
       style="display:inline;opacity:1;fill:#ffffff;fill-opacity:1;stroke:none;stroke-width:2.95576406;stroke-linecap:butt;stroke-miterlimit:4;stroke-dasharray:none;stroke-opacity:1"
       d="m 3.0427085,270.27709 -1.190625,1.41851 10.3332195,8.67079 1.440739,1.20871 1.440738,-1.20871 L 25.4,271.6956 24.209375,270.27709 13.626042,279.15768 Z M 2e-7,276.3625 V 278.78044 297 h 1.8520833 v -16.66565 l 11.7718915,9.87795 0.0021,-0.002 0.0021,0.002 L 25.4,280.33435 V 297 h 1.852083 V 278.78044 276.3625 L 25.4,277.91641 l -11.773958,9.8795 z"
       id="rect4564"
       inkscape:connector-curvature="0" />
    <path
       style="opacity:1;fill:#ffffff;fill-opacity:1;stroke:none;stroke-width:1.33256137;stroke-linecap:butt;stroke-miterlimit:4;stroke-dasharray:none;stroke-opacity:1"
       d="m 33.866666,270.27709 v 1.85208 9.26042 0.26458 h 11.1125 v -1.85208 H 35.71875 v -7.67292 h 15.345833 v -1.85208 H 35.71875 Z m 0,15.34583 v 0.26458 9.26042 V 297 h 1.852084 15.345833 v -1.85208 H 35.71875 V 287.475 h 9.260416 v -1.85208 z"
       id="rect4989"
       inkscape:connector-curvature="0" />
    <path
       style="display:inline;opacity:1;fill:#ffffff;fill-opacity:1;stroke:none;stroke-width:1.33256137;stroke-linecap:butt;stroke-miterlimit:4;stroke-dasharray:none;stroke-opacity:1"
       d="m 55.033333,270.27709 v 1.85208 h 7.672916 V 297 h 1.852084 v -24.87083 h 7.672916 v -1.85208 z"
       id="rect4989-0"
       inkscape:connector-curvature="0" />
    <path
       style="display:inline;opacity:1;fill:#ffffff;fill-opacity:1;stroke:none;stroke-width:2.37044454;stroke-linecap:butt;stroke-miterlimit:4;stroke-dasharray:none;stroke-opacity:1"
       d="m 76.199999,270.27709 v 11.37708 h 1.852084 15.081249 1.852084 v -11.37708 h -1.852084 v 9.525 H 78.052083 v -9.525 z m 0,15.34583 V 297 h 1.852084 v -9.525 H 93.133332 V 297 h 1.852084 V 285.62292 H 93.133332 78.052083 Z"
       id="rect5111"
       inkscape:connector-curvature="0" />
    <path
       style="opacity:1;fill:#ffffff;fill-opacity:1;stroke:none;stroke-width:1.01801586;stroke-linecap:butt;stroke-miterlimit:4;stroke-dasharray:none;stroke-opacity:1"
       d="M 112.84479,270.27709 A 13.361459,13.361459 0 0 0 99.483332,283.63854 13.361459,13.361459 0 0 0 112.84479,297 13.361459,13.361459 0 0 0 126.20625,283.63854 13.361459,13.361459 0 0 0 112.84479,270.27709 Z m 0,1.85208 a 11.509375,11.509375 0 0 1 11.50938,11.50937 11.509375,11.509375 0 0 1 -11.50938,11.50938 11.509375,11.509375 0 0 1 -11.50937,-11.50938 11.509375,11.509375 0 0 1 11.50937,-11.50937 z"
       id="path5174"
       inkscape:connector-curvature="0" />
    <path
       style="opacity:1;fill:#ffffff;fill-opacity:1;stroke:none;stroke-width:2.21778154;stroke-linecap:butt;stroke-miterlimit:4;stroke-dasharray:none;stroke-opacity:1"
       d="M 130.70417,270.27709 V 297 h 1.85208 7.67292 c 7.37932,0 10.85618,-5.97386 10.85618,-13.35319 0,-7.37933 -3.47686,-13.36972 -10.85618,-13.36972 h -7.67292 z m 1.85208,1.85208 h 7.67292 c 6.35645,0 9.0041,5.16946 9.0041,11.52591 0,6.35645 -2.64765,11.49284 -9.0041,11.49284 h -7.67292 z"
       id="rect5235"
       inkscape:connector-curvature="0"
       sodipodi:nodetypes="cccssscccssscc" />
    <path
       style="opacity:1;fill:#ffffff;fill-opacity:1;stroke:none;stroke-width:1.07392454;stroke-linecap:butt;stroke-miterlimit:4;stroke-dasharray:none;stroke-opacity:1"
       d="m 178.06458,270.27709 -20.4959,17.19791 h 2.50423 17.99167 V 297 h 1.85208 v -14.81666 h -1.85208 v 3.43958 h -15.40733 l 16.59796,-13.9268 z"
       id="rect5318"
       inkscape:connector-curvature="0" />
  </g>
</svg>
